<?xml version="1.0" encoding="utf-8"?>
<!-- Generator: Adobe Illustrator 16.0.0, SVG Export Plug-In . SVG Version: 6.00 Build 0)  -->
<!DOCTYPE svg PUBLIC "-//W3C//DTD SVG 1.1//EN" "http://www.w3.org/Graphics/SVG/1.1/DTD/svg11.dtd">
<svg version="1.1" id="Layer_1" xmlns="http://www.w3.org/2000/svg" xmlns:xlink="http://www.w3.org/1999/xlink" x="0px" y="0px"
	 width="500px" height="500px" viewBox="0 0 500 500" enable-background="new 0 0 500 500" xml:space="preserve">
<path fill-rule="evenodd" clip-rule="evenodd" fill="#EE6059" d="M465.421,266.729c-0.775,6.658-1.451,13.329-2.343,19.972
	c-3.937,29.309-13.947,56.473-29.629,81.463c-17.524,27.927-39.859,51.256-67.802,69.01c-14.608,9.282-30.192,16.565-46.565,22.079
	c-9.072,3.056-15.37-1.642-15.417-11.188c-0.093-18.648,0.011-37.298-0.049-55.945c-0.03-9.572-0.568-19.159-4.81-27.933
	c-2.337-4.836-5.598-9.228-8.418-13.781c7.856-1.471,16.277-2.592,24.457-4.665c21.979-5.571,41.629-15.281,55.029-34.46
	c9.847-14.091,14.35-30.281,16.339-47.158c1.546-13.114,1.983-26.273-0.772-39.333c-2.771-13.142-8.424-24.921-17.238-35.043
	c-2.339-2.687-2.529-4.815-1.441-8.152c5.647-17.331,3.22-34.301-3.217-50.916c-0.375-0.967-1.961-1.89-3.102-2.066
	c-7.639-1.179-14.843,0.992-21.547,4.144c-10.741,5.052-21.112,10.889-31.759,16.151c-2.042,1.009-4.838,1.704-6.946,1.178
	c-33.443-8.328-66.845-8.404-100.228,0.145c-2.876,0.736-5.048,0.226-7.429-1.357c-13.39-8.905-27.815-15.575-43.386-19.699
	c-0.406-0.107-0.808-0.241-1.22-0.318c-9.779-1.837-11.349-0.828-14.146,8.661c-4.549,15.43-5.41,30.814,0.008,46.263
	c0.429,1.223-0.018,3.358-0.884,4.342c-17.766,20.157-22.008,44.078-19.802,69.875c1.337,15.639,4.952,30.654,11.929,44.776
	c9.642,19.515,25.978,31.527,45.825,38.459c11.921,4.163,24.697,5.878,37.09,8.687c0.631,0.143,1.277,0.221,1.346,0.232
	c-3.148,5.735-6.366,11.375-9.338,17.142c-0.943,1.828-1.648,3.975-1.738,6.007c-0.212,4.827-2.746,7.09-7.197,8.241
	c-13.528,3.498-26.938,5.843-39.825-2.122c-6.838-4.228-11.935-10.109-15.97-16.976c-6.208-10.565-14.929-18.271-26.694-21.781
	c-4.236-1.264-9.062-1.02-13.574-0.735c-3.412,0.216-4.148,2.688-1.971,5.357c1.841,2.258,3.693,4.823,6.131,6.224
	c11.454,6.582,17.874,17.103,23.062,28.607c3.056,6.776,5.804,13.608,11.566,18.77c9.056,8.111,19.977,11.182,31.667,11.705
	c10.137,0.455,20.311,0.095,31.159,0.095c0,7.242-0.019,15.481,0.008,23.721c0.014,4.347,0.17,8.693,0.151,13.039
	c-0.044,10.073-6.69,14.938-16.234,11.686c-31.83-10.846-59.844-27.943-83.329-52.063c-22.771-23.386-40.171-50.244-50.903-81.241
	c-6.085-17.574-9.619-35.651-11.026-54.171c-0.125-1.648-0.436-3.284-0.661-4.925c0-8.415,0-16.83,0-25.245
	c0.272-1.484,0.586-2.962,0.808-4.453c1.443-9.689,2.221-19.529,4.402-29.048c12.205-53.282,40.587-96.045,84.886-128.039
	c30.731-22.193,65.021-35.264,102.865-38.955c31.996-3.121,63.313-0.129,93.608,10.664c44.236,15.758,79.96,42.936,106.609,81.714
	c17.611,25.629,29.406,53.709,34.383,84.503c1.268,7.843,2.195,15.741,3.279,23.614
	C465.421,249.898,465.421,258.313,465.421,266.729z"/>
</svg>
