<?xml version="1.0" encoding="utf-8"?>
<!-- Generator: Adobe Illustrator 16.0.0, SVG Export Plug-In . SVG Version: 6.00 Build 0)  -->
<!DOCTYPE svg PUBLIC "-//W3C//DTD SVG 1.1//EN" "http://www.w3.org/Graphics/SVG/1.1/DTD/svg11.dtd">
<svg version="1.1" id="Layer_1" xmlns="http://www.w3.org/2000/svg" xmlns:xlink="http://www.w3.org/1999/xlink" x="0px" y="0px"
	 width="500px" height="500px" viewBox="0 0 500 500" enable-background="new 0 0 500 500" xml:space="preserve">
<path fill="#EE6059" d="M57.643,414.143c0-114.575,0-229.15,0-343.726c0.249-0.573,0.609-1.124,0.731-1.723
	c2.452-11.98,9.677-19.456,21.376-22.731c1.584-0.444,3.175-0.866,4.764-1.298c114.202,0,228.404,0,342.606,0
	c0.505,0.221,0.993,0.579,1.518,0.644c13.694,1.689,25.284,13.297,25.253,30.238c-0.203,111.462-0.196,222.925-0.009,334.388
	c0.029,17.252-12.821,30.296-30.335,30.293c-97.286-0.015-194.57-0.007-291.855-0.007c-14.924,0-29.848,0.026-44.771-0.008
	c-13.217-0.031-24.601-8.823-28.009-21.545C58.506,417.155,58.066,415.651,57.643,414.143z M268.906,218.458
	c0-8.073-0.146-15.26,0.071-22.436c0.089-2.922-0.905-3.641-3.653-3.625c-16.607,0.099-33.214,0.044-49.822,0.053
	c-3.829,0.002-3.912,0.082-3.912,3.921c-0.005,60.737-0.005,121.475-0.001,182.211c0,3.787,0.021,3.793,3.955,3.794
	c17.167,0.002,34.333,0.002,51.5,0c4.16-0.001,4.15-0.005,4.166-4.052c0.129-32.462,0.119-64.925,0.516-97.383
	c0.075-6.163,1.243-12.443,2.824-18.427c2.635-9.973,8.686-17.442,18.991-20.191c4.693-1.252,9.76-1.728,14.627-1.577
	c13.781,0.425,21.967,6.723,25.249,20.173c1.793,7.345,2.617,15.09,2.685,22.665c0.286,31.812,0.144,63.628,0.078,95.443
	c-0.006,2.467,0.569,3.422,3.254,3.405c17.819-0.111,35.64-0.089,53.459-0.02c2.263,0.009,3.104-0.646,3.09-3.006
	c-0.247-39.736-0.286-79.476-0.709-119.21c-0.115-10.822-2.134-21.501-5.613-31.811c-4.904-14.531-13.4-26.148-27.44-33.12
	c-9.166-4.551-19.007-6.417-29.122-7.177c-14.933-1.123-29.197,1.006-42.359,8.583C281.762,201.841,274.553,208.83,268.906,218.458z
	 M175.838,287.628c0-30.506-0.031-61.012,0.051-91.518c0.007-2.795-0.829-3.731-3.663-3.714
	c-17.631,0.103-35.264,0.092-52.896,0.008c-2.63-0.012-3.571,0.779-3.568,3.506c0.062,61.011,0.062,122.024,0,183.036
	c-0.003,2.686,0.818,3.501,3.509,3.485c17.538-0.105,35.077-0.053,52.615-0.056c3.941,0,3.951-0.007,3.952-4.069
	C175.839,348.08,175.838,317.854,175.838,287.628z M111.234,133.079c-0.021,19.133,15.597,34.758,34.668,34.682
	c18.961-0.075,34.502-15.655,34.502-34.592c0.001-18.992-15.48-34.42-34.554-34.436C126.764,98.718,111.254,114.106,111.234,133.079
	z"/>
</svg>
