<?xml version="1.0" encoding="utf-8"?>
<!-- Generator: Adobe Illustrator 16.0.0, SVG Export Plug-In . SVG Version: 6.00 Build 0)  -->
<!DOCTYPE svg PUBLIC "-//W3C//DTD SVG 1.1//EN" "http://www.w3.org/Graphics/SVG/1.1/DTD/svg11.dtd">
<svg version="1.1" id="Layer_1" xmlns="http://www.w3.org/2000/svg" xmlns:xlink="http://www.w3.org/1999/xlink" x="0px" y="0px"
	 width="500px" height="500px" viewBox="0 0 500 500" enable-background="new 0 0 500 500" xml:space="preserve">
<g>
	<path fill="#3A2D40" d="M140.889,288.113c6.594,2.904,13.111,5.5,20.111,8.303c0-9.383,0-18.105,0-27.453
		c-7,3.125-13.143,5.936-19.403,8.857C139.335,278.875,138.699,287.15,140.889,288.113z"/>
	<path fill="#3A2D40" d="M209.616,150.703c3.838-2.11,7.134-3.957,10.468-5.731c0.811-0.431,1.294-0.949,1.294-1.87
		c0.001-8.094,0-16.188,0-24.855c-3.816,2.334-6.93,4.259-10.068,6.146c-0.975,0.587-1.722,1.185-1.714,2.507
		C209.638,134.639,209.616,142.378,209.616,150.703z"/>
	<path fill="#3A2D40" d="M407.095,248.258c0-24.896-0.111-49.79,0.039-74.684c0.098-16.234-6.905-27.939-21.177-35.601
		c-39.737-21.336-79.435-42.747-119.108-64.198c-11.27-6.093-22.372-6.142-33.643-0.049
		c-39.797,21.513-79.612,42.992-119.455,64.419c-13.818,7.432-20.804,18.811-20.794,34.544c0.031,50.336,0.029,100.673,0,151.009
		c-0.009,15.658,6.866,27.193,20.399,34.941c38.67,22.143,77.326,44.307,115.965,66.502c13.945,8.01,27.755,7.82,41.648-0.162
		c38.046-21.855,76.068-43.756,114.225-65.418c14.857-8.436,22.167-20.684,21.974-37.852
		C406.89,297.229,407.096,272.742,407.095,248.258z M323.832,130.336c8.425,4.934,16.129,9.545,23.949,13.955
		c1.968,1.11,2.059,2.582,2.053,4.422c-0.035,10.394,0.072,20.79-0.077,31.182c-0.04,2.784,0.778,4.594,3.545,5.697
		c2.75,1.097,4.698,2.659,8.698,4.286c0-12.878,0-25.313,0-38.508c8,5.021,16.043,9.675,23.875,14.265
		c1.342,0.786,1.206,1.924,1.204,3.167c-0.006,7.66-0.131,15.318-0.022,22.976c0.05,3.43-2.694,4.924-4.538,6.966
		c-1.514,1.677-1.831,2.886,0.177,4.153c3.799,2.399,4.444,5.89,4.37,10.156c-0.235,13.67-0.092,27.347-0.092,41.765
		c-4.648-2.443-8.943-4.642-13.184-6.945c-4.287-2.328-10.1-3.793-12.327-7.423c-2.146-3.499-0.594-9.282-0.613-14.064
		c-0.028-6.837-0.118-13.678,0.057-20.512c0.058-2.253-0.432-3.489-2.436-4.422c-2.812-1.31-5.471-2.894-8.471-4.595
		c0,13.063,0,25.685,0,38.698c-4-0.762-6.357-2.783-9.166-4.188c-4.873-2.438-9.732-5.108-14.573-7.616
		c-1.415-0.733-2.425-1.441-2.422-3.331C323.9,190.623,323.832,160.825,323.832,130.336z M113.218,170.341
		c-0.014-2.987,0.737-4.695,3.332-6.143c7.111-3.97,14.45-8.209,21.45-12.634c0,12.908,0,25.263,0,38.445
		c4-2.101,7.442-3.853,10.747-5.407c1.996-0.938,1.708-2.575,1.709-4.165c0.006-10.532,0.113-21.065-0.016-31.593
		c-0.03-2.476,0.676-3.946,2.915-5.192c7.579-4.22,15.033-8.681,22.543-13.057c1,1.417,0.625,2.684,0.625,3.861
		c0.025,28.039-0.018,56.077,0.083,84.116c0.01,2.819-0.659,4.398-3.273,5.689c-7.406,3.655-14.333,7.646-22.333,11.762
		c0-13.274,0-25.916,0-39.223c-4,1.975-6.96,3.741-10.19,5.373c-1.803,0.911-1.436,2.466-1.438,3.903
		c-0.019,10.532-0.131,21.065,0.029,31.594c0.039,2.57-0.844,3.871-3.074,5.006c-7.504,3.819-14.903,7.857-22.34,11.812
		c-1.135-1.418-0.668-2.836-0.67-4.134C113.286,223.683,113.342,197.012,113.218,170.341z M181.29,302.598
		c-4.937,2.91-9.844,5.881-14.628,9.033c-1.74,1.148-3.185,0.979-4.913,0.295c-6.942-2.744-13.909-5.424-21.342-8.312
		c-0.08,1.779-0.198,3.201-0.2,4.619c-0.014,12.723-0.052,25.445,0.025,38.166c0.017,2.795-0.133,4.209-3.411,2.273
		c-6.807-4.023-13.751-7.822-20.727-11.549c-2.083-1.113-2.858-2.432-2.847-4.807c0.093-18.74,0.059-37.48,0.039-56.221
		c-0.002-1.695,0.075-3.062,1.929-4.043c22.525-11.945,45.004-23.974,67.5-35.971c0.089-0.049,0.256,0.051,0.807,0.178
		c0,20.899-0.026,41.686,0.043,62.475C183.571,300.648,182.874,301.664,181.29,302.598z M185.925,127.131
		c-0.01-2.842,0.841-4.287,3.407-5.627c17.276-9.022,34.422-18.258,51.629-27.414c1.169-0.622,2.04-1.159,4.04-1.969
		c0,1.525,0,2.564,0,3.604c0,29.402-0.026,58.803,0.083,88.205c0.011,2.724-0.873,4.132-3.328,5.309
		c-6.476,3.1-12.755,6.509-19.755,10.042c0-14.16,0-27.757,0-42.145c-4,2.359-7.735,4.41-11.378,6.433
		c-1.628,0.903-0.887,2.433-0.893,3.675c-0.058,11.624-0.085,23.249,0.047,34.871c0.029,2.51-0.659,3.918-2.968,5.066
		c-6.804,3.388-13.808,7.046-20.808,10.933c0-1.71,0-2.859,0-4.009C186,185.114,186.03,156.122,185.925,127.131z M303.903,277.434
		c0.03,3.182-0.695,3.621-3.629,2.537c-10.713-3.965-21.494-7.744-32.299-11.455c-2.156-0.74-2.938-1.762-2.902-4.08
		c0.14-9.02-0.023-18.043,0.109-27.064c0.035-2.474-0.613-3.979-2.951-5.111c-4.162-2.015-8.146-4.394-12.205-6.621
		c-4.536,2.497-9.033,5.075-13.63,7.455c-1.892,0.978-2.824,2.059-2.803,4.369c0.117,13.539,0.114,27.078,0.003,40.617
		c-0.02,2.299,0.638,3.369,2.891,4.018c4.554,1.312,9.011,2.961,13.507,4.473c15.455,4.762,30.916,9.504,46.36,14.297
		c7.5,2.328,7.485,2.371,7.485,10.41c0,22.418-0.008,44.836,0.013,67.256c0.002,2.082,0.007,3.764-2.343,5.055
		c-16.719,9.184-33.333,18.561-49.986,27.863c-0.451,0.252-1,0.328-1.502,0.488c-13.785-7.703-27.583-15.377-41.343-23.119
		c-4.146-2.334-9.745-3.951-11.834-7.551c-2.094-3.602-0.698-9.27-0.72-14.031c-0.044-9.436,0.071-18.873-0.062-28.307
		c-0.041-2.906,0.616-3.443,3.519-2.611c10.588,3.037,21.26,5.789,31.918,8.576c2.129,0.557,3.048,1.457,2.979,3.896
		c-0.206,7.377,0.006,14.768-0.122,22.148c-0.039,2.176,0.518,3.412,2.606,4.385c4.445,2.068,8.725,4.49,13.071,6.766
		c4.531-2.742,9.033-5.541,13.619-8.193c1.489-0.861,2.002-1.885,1.99-3.588c-0.071-10.902-0.096-21.807,0.017-32.709
		c0.021-2.016-0.663-2.881-2.509-3.424c-4.412-1.297-8.77-2.764-13.148-4.162c-14.336-4.234-28.676-8.451-43.002-12.721
		c-3.506-1.043-8.077-1.285-10.141-3.654c-2.293-2.631-0.702-7.342-0.713-11.137c-0.069-23.248-0.021-46.494-0.055-69.742
		c-0.003-2.128,0.093-3.759,2.44-4.976c16.694-8.657,33.295-17.493,49.938-26.251c0.45-0.237,1.022-0.247,1.537-0.362
		c1.383-0.324,2.307,0.683,3.348,1.233c15.781,8.327,31.514,16.744,47.336,24.992c2.379,1.24,3.252,2.611,3.223,5.337
		C303.761,247.632,303.763,262.535,303.903,277.434z M313.996,149.575c-7.785-4.355-14.986-8.42-22.229-12.41
		c-1.758-0.968-1.571-2.588-1.293-3.943c1.43-6.951-1.607-10.949-8.084-12.898c-1.002-0.301-1.921-0.872-2.92-1.339
		c-1.078,1.373-0.584,2.772-0.587,4.042c-0.038,19.691,0.052,39.382-0.104,59.071c-0.027,3.277,0.732,5.359,3.909,6.573
		c2.386,0.911,4.598,2.282,7.573,3.797c0-2.412,0.107-4.371-0.027-6.314c-0.183-2.65,0.156-3.879,3.201-2.258
		c6.007,3.198,12.154,6.132,18.264,9.135c1.421,0.698,2.384,1.405,2.349,3.305c-0.13,6.945-0.051,13.893-0.051,21.527
		c-19.275-10.141-37.825-19.914-56.401-29.641c-1.231-0.646-1.84-1.364-1.838-2.812c0.031-30.997,0.023-61.996,0.023-93.006
		c1.641-0.219,2.551,0.771,3.553,1.346c17.157,9.82,34.26,19.737,51.449,29.501c2.422,1.375,3.385,2.895,3.287,5.726
		C313.84,135.611,313.996,142.261,313.996,149.575z M387.213,285.658c-0.916,15.398-0.312,30.893-0.183,46.344
		c0.022,2.643-0.653,4.119-3.119,5.361c-21.408,10.779-42.765,21.664-64.077,32.637c-3.104,1.598-3.755,1.082-3.747-2.359
		c0.091-42.664,0.096-85.33-0.003-127.994c-0.009-3.829,0.98-3.718,3.784-2.047c7.024,4.187,14.131,8.243,21.31,12.159
		c2.419,1.317,3.13,2.821,3.113,5.674c-0.131,24.75-0.291,49.502-0.291,74.252c0,1.467,0,2.936,0,5.092
		c6-2.594,10.757-4.898,15.722-7.328c1.592-0.777,1.06-2.449,1.063-3.711c0.043-19.555,0.215-39.109,0.215-58.664c0-1.5,0-3,0-5.244
		c5,2.713,9.902,5.887,15.068,7.582C385.33,270.449,387.778,276.156,387.213,285.658z"/>
	<path fill="#3A2D40" d="M0,0v500h500V0H0z M431,332.201c-1,0.467-0.83,0.914-0.906,1.406
		c-3.271,21.164-15.169,36.094-33.526,46.488c-23.316,13.205-46.272,27.386-69.851,40.095C304.006,432.435,283.438,449,257.39,455
		c-5.473,0-10.947,0-16.42,0c-1.217-2-3-1.384-4.526-1.757c-5.607-1.367-11.056-3.321-16.049-6.175
		c-40.431-23.119-80.905-46.225-121.171-69.629c-15.27-8.877-24.956-22.389-28.648-39.82c-0.323-1.525,0.426-3.367-1.574-4.596
		c0-56.65,0-113.297,0-169.946c1-0.572,1.042-1.647,1.214-2.542c3.729-19.43,14.706-33.529,31.996-42.852
		c40.309-21.73,80.616-43.552,121.006-65.129c17.677-9.443,35.778-9.449,53.45-0.002c41.106,21.976,82.155,44.085,123.081,66.397
		c14.726,8.027,24.517,20.465,28.975,36.753c0.746,2.721,0.278,5.646,2.278,8.195C431,220,431,276.102,431,332.201z"/>
</g>
</svg>
